Coordinates
version=1
nRows=38
nColumns=34
inDegrees=no

Units are S.I. units (second, meters, Newtons, ...)
If the header above contains a line with 'inDegrees', this indicates whether rotational values are in degrees (yes) or radians (no).

endheader
time	pelvis_tilt	pelvis_list	pelvis_rotation	pelvis_tx	pelvis_ty	pelvis_tz	hip_flexion_r	hip_adduction_r	hip_rotation_r	knee_angle_r	ankle_angle_r	subtalar_angle_r	mtp_angle_r	hip_flexion_l	hip_adduction_l	hip_rotation_l	knee_angle_l	ankle_angle_l	subtalar_angle_l	mtp_angle_l	lumbar_extension	lumbar_bending	lumbar_rotation	arm_flex_r	arm_add_r	arm_rot_r	elbow_flex_r	pro_sup_r	arm_flex_l	arm_add_l	arm_rot_l	elbow_flex_l	pro_sup_l
2.14	-0.192138	-0.00342302	-0.012962	-0.0562023	1.17474	-0.570028	0.183637	-0.170222	-0.3975	0.162418	-0.797721	0.0162136	-0.125448	0.202487	-0.152608	-0.460973	0.0960773	-0.785791	0.111272	-0.124793	0.127658	0.0013303	0.0936376	2.55019	-0.0669348	0.761284	0.706869	1.58638	2.70299	-0.133615	1.13289	0.749554	1.47996
2.15	-0.183098	-0.00282636	-0.00379732	-0.0533433	1.1862	-0.570708	0.168964	-0.177133	-0.400441	0.176581	-0.793637	0.00492137	-0.12544	0.190665	-0.152387	-0.469242	0.110459	-0.779162	0.0970443	-0.124791	0.129787	2.86813e-05	0.0826311	2.53591	-0.0678011	0.745063	0.725279	1.60704	2.6901	-0.13625	1.11282	0.763911	1.48184
2.16	-0.174028	-0.00270859	0.00705887	-0.0506803	1.1967	-0.571543	0.153214	-0.182716	-0.40535	0.186277	-0.788563	0.000493713	-0.125431	0.179278	-0.151688	-0.473283	0.121753	-0.771871	0.0861897	-0.12479	0.13089	-0.00110109	0.070578	2.52415	-0.070946	0.733823	0.745688	1.62749	2.67813	-0.139285	1.09668	0.779107	1.4824
2.17	-0.165122	-0.00305073	0.0193673	-0.0482399	1.20622	-0.572529	0.136652	-0.187056	-0.413668	0.191279	-0.782978	0.00255161	-0.125423	0.168369	-0.150491	-0.474391	0.129207	-0.764181	0.0792	-0.124788	0.131103	-0.00195515	0.0579572	2.51547	-0.0762652	0.728633	0.766364	1.64592	2.66783	-0.142655	1.08579	0.794211	1.48239
2.18	-0.156596	-0.00373015	0.0327108	-0.0460369	1.21473	-0.573646	0.119991	-0.190406	-0.425425	0.192355	-0.777318	0.0091671	-0.125414	0.158235	-0.148776	-0.473442	0.132997	-0.756286	0.075506	-0.124786	0.130587	-0.00251319	0.0452323	2.51025	-0.08347	0.729748	0.785898	1.66092	2.65993	-0.146516	1.08087	0.808726	1.4826
2.19	-0.1487	-0.00458091	0.0465255	-0.0440994	1.22219	-0.574851	0.104211	-0.193093	-0.439512	0.19085	-0.77196	0.0176236	-0.125406	0.149298	-0.146553	-0.47094	0.133891	-0.74836	0.0739112	-0.124785	0.129531	-0.00280318	0.0328549	2.50859	-0.0921448	0.736725	0.803314	1.67161	2.65503	-0.151166	1.08193	0.822587	1.4837
2.2	-0.141712	-0.00545352	0.0601636	-0.0424685	1.22856	-0.576079	0.0903761	-0.195414	-0.454164	0.188263	-0.767172	0.0252264	-0.125398	0.141998	-0.143891	-0.467154	0.132916	-0.740519	0.0730608	-0.124783	0.128161	-0.00286432	0.0212805	2.51032	-0.101864	0.74861	0.818135	1.67759	2.65343	-0.15688	1.08824	0.836012	1.48618
2.21	-0.135915	-0.00626169	0.0729699	-0.04117	1.23381	-0.57726	0.0794634	-0.197547	-0.467461	0.185861	-0.763089	0.0299597	-0.125389	0.136736	-0.140931	-0.462223	0.131077	-0.732755	0.0718305	-0.124781	0.126742	-0.00272458	0.0109688	2.51505	-0.112292	0.76414	0.830365	1.67881	2.655	-0.163763	1.09845	0.849306	1.49022
2.22	-0.131561	-0.00699588	0.0843603	-0.0402059	1.23791	-0.578331	0.072233	-0.199519	-0.477747	0.184434	-0.759703	0.0308783	-0.125381	0.133827	-0.137858	-0.456209	0.129156	-0.724887	0.0695674	-0.12478	0.125575	-0.00239473	0.00235475	2.52213	-0.123208	0.781906	0.840403	1.67558	2.65922	-0.171684	1.1108	0.862705	1.49579
2.23	-0.128837	-0.00770185	0.0938874	-0.0395576	1.24087	-0.579237	0.0691345	-0.201224	-0.483941	0.18421	-0.756877	0.0281781	-0.125372	0.133454	-0.134853	-0.449094	0.127604	-0.716565	0.0661665	-0.124778	0.124957	-0.00187814	-0.0042083	2.53076	-0.134475	0.800473	0.848885	1.66858	2.66529	-0.180318	1.1234	0.876298	1.50266
2.24	-0.12783	-0.00844026	0.101288	-0.0391916	1.24268	-0.579941	0.0702659	-0.202501	-0.485722	0.184947	-0.754369	0.0229708	-0.125364	0.135638	-0.132036	-0.440782	0.126528	-0.707312	0.0620097	-0.124776	0.125128	-0.00119051	-0.00851402	2.54001	-0.145986	0.818486	0.856528	1.65874	2.67221	-0.189239	1.13461	0.890037	1.51047
2.25	-0.128487	-0.00924661	0.106507	-0.0390712	1.24338	-0.580427	0.0753803	-0.203217	-0.483567	0.186122	-0.751856	0.0168668	-0.125356	0.140213	-0.129433	-0.431127	0.125763	-0.696598	0.0578109	-0.124774	0.126208	-0.000378099	-0.0105564	2.54899	-0.157603	0.834769	0.863999	1.6471	2.67905	-0.198044	1.14326	0.9038	1.5188
2.26	-0.130601	-0.0101047	0.10969	-0.0391621	1.24298	-0.580704	0.0839357	-0.203341	-0.47866	0.187169	-0.748965	0.0115032	-0.125347	0.146825	-0.126962	-0.420013	0.12497	-0.683937	0.0544354	-0.124773	0.128146	0.000479274	-0.0105498	2.55688	-0.169121	0.848385	0.871804	1.63484	2.68506	-0.206471	1.14881	0.917512	1.52726
2.27	-0.133822	-0.0109407	0.111154	-0.0394347	1.24152	-0.580796	0.0951696	-0.202974	-0.472642	0.187654	-0.745322	0.00813801	-0.125339	0.154967	-0.124466	-0.407477	0.12376	-0.669004	0.0527278	-0.124771	0.130702	0.0012844	-0.00890867	2.56304	-0.18025	0.858678	0.880224	1.62329	2.68978	-0.214466	1.15138	0.931233	1.53547
2.28	-0.137682	-0.0116395	0.111337	-0.0398662	1.23905	-0.580742	0.108187	-0.202318	-0.467271	0.187375	-0.740628	0.00739739	-0.12533	0.164032	-0.121765	-0.393826	0.121807	-0.651762	0.0533729	-0.124769	0.133455	0.001948	-0.0061905	2.56709	-0.19063	0.865286	0.889295	1.61381	2.69312	-0.222195	1.1516	0.9452	1.54312
2.29	-0.141653	-0.0120857	0.11074	-0.0404567	1.23561	-0.58059	0.122055	-0.201623	-0.464058	0.18638	-0.734725	0.00921658	-0.125322	0.173402	-0.118719	-0.379677	0.118948	-0.632596	0.056786	-0.124768	0.135867	0.00240749	-0.00301568	2.5689	-0.19989	0.868169	0.898862	1.60748	2.69521	-0.229982	1.1504	0.959786	1.54999
2.3	-0.145208	-0.0122016	0.109876	-0.041189	1.23124	-0.580394	0.1359	-0.201116	-0.463967	0.18491	-0.727657	0.0129765	-0.125314	0.18254	-0.115276	-0.36591	0.115225	-0.612406	0.0630365	-0.124766	0.137364	0.00263408	1.76937e-05	2.56862	-0.207717	0.867576	0.908647	1.60485	2.69639	-0.238212	1.14877	0.975413	1.55602
2.31	-0.147883	-0.0119652	0.109218	-0.0420411	1.22597	-0.580195	0.148983	-0.200958	-0.467251	0.183326	-0.719686	0.0177607	-0.125305	0.191053	-0.111488	-0.353509	0.110887	-0.592633	0.0718077	-0.124764	0.137437	0.00263712	0.00241191	2.56657	-0.213933	0.864002	0.918346	1.60605	2.69703	-0.247216	1.14756	0.992438	1.56127
2.32	-0.149324	-0.011412	0.109157	-0.0430185	1.21981	-0.580013	0.160745	-0.201206	-0.473424	0.182012	-0.711292	0.0226261	-0.125297	0.198716	-0.107512	-0.343351	0.106344	-0.575152	0.0824017	-0.124763	0.135722	0.0024657	0.00382718	2.56323	-0.218539	0.858127	0.927707	1.61085	2.69746	-0.257177	1.1473	1.01105	1.56584
2.33	-0.149307	-0.0106428	0.109967	-0.0440933	1.21275	-0.579873	0.170819	-0.201804	-0.481386	0.181298	-0.703148	0.0268036	-0.125288	0.205455	-0.103584	-0.335984	0.102099	-0.562038	0.0938021	-0.124761	0.132026	0.00219759	0.00411001	2.5591	-0.221725	0.850756	0.936597	1.61872	2.69787	-0.26808	1.14824	1.03122	1.5698
2.34	-0.14774	-0.00980345	0.111801	-0.045231	1.20483	-0.579785	0.179015	-0.202594	-0.489676	0.18141	-0.696062	0.0298208	-0.12528	0.211302	-0.0999858	-0.331436	0.0986859	-0.555201	0.104795	-0.12476	0.126336	0.00193737	0.0032826	2.55467	-0.223837	0.842729	0.945021	1.62887	2.6983	-0.279701	1.15029	1.05263	1.57314
2.35	-0.144652	-0.00905695	0.114698	-0.0463926	1.19603	-0.579749	0.185299	-0.203354	-0.496789	0.182469	-0.690867	0.0315388	-0.125272	0.216359	-0.0969984	-0.329121	0.0966237	-0.555992	0.11413	-0.124758	0.118812	0.00180474	0.00150147	2.55035	-0.225324	0.834836	0.953116	1.64025	2.69867	-0.291641	1.15318	1.07476	1.57579
2.36	-0.140173	-0.00855631	0.118607	-0.0475373	1.18636	-0.579756	0.189773	-0.203853	-0.501454	0.184539	-0.688256	0.0320894	-0.125263	0.220778	-0.0948538	-0.327854	0.0964252	-0.564853	0.120681	-0.124756	0.109762	0.00191637	-0.0010044	2.54641	-0.226659	0.827722	0.961102	1.65168	2.69883	-0.303401	1.15658	1.09691	1.57769
2.37	-0.134519	-0.00841905	0.123418	-0.0486259	1.17578	-0.5798	0.192668	-0.203904	-0.502814	0.187711	-0.688554	0.0317211	-0.125255	0.224771	-0.093694	-0.325994	0.0986458	-0.581065	0.123567	-0.124755	0.0996054	0.00236857	-0.00400312	2.543	-0.228256	0.821824	0.969207	1.662	2.69867	-0.314474	1.16022	1.11833	1.57872
2.38	-0.127974	-0.00871415	0.128997	-0.0496372	1.16427	-0.579878	0.194335	-0.203398	-0.500469	0.192211	-0.69146	0.0305994	-0.125247	0.228627	-0.0935462	-0.321686	0.103965	-0.602619	0.122213	-0.124753	0.0888342	0.00322386	-0.00732052	2.54017	-0.23039	0.817315	0.97757	1.67042	2.69814	-0.324443	1.16397	1.13833	1.57876
2.39	-0.12086	-0.00946312	0.135202	-0.0505548	1.15178	-0.579982	0.195243	-0.202326	-0.494416	0.198517	-0.695789	0.0286369	-0.125238	0.232743	-0.094319	-0.313179	0.11327	-0.626198	0.116384	-0.124751	0.0779617	0.00450629	-0.0108713	2.5379	-0.233147	0.814124	0.986181	1.67664	2.69731	-0.333051	1.16792	1.15634	1.57764
2.4	-0.113524	-0.0106567	0.141888	-0.0513613	1.13831	-0.580115	0.195982	-0.200778	-0.4849	0.207445	-0.699293	0.0254152	-0.12523	0.237643	-0.0958206	-0.299175	0.127697	-0.647277	0.106187	-0.12475	0.0674805	0.00620066	-0.0146559	2.53612	-0.236416	0.81199	0.994863	1.68078	2.69637	-0.340228	1.17226	1.17201	1.57525
2.41	-0.10631	-0.0122572	0.148903	-0.0520414	1.12381	-0.580282	0.197251	-0.198922	-0.472258	0.220185	-0.698613	0.0202283	-0.125221	0.243971	-0.097793	-0.279092	0.148598	-0.660384	0.0920606	-0.124748	0.0578322	0.0082597	-0.0187319	2.53478	-0.239934	0.810547	1.00332	1.68321	2.69558	-0.346077	1.17722	1.18521	1.5716
2.42	-0.0995338	-0.0141954	0.15609	-0.0525996	1.10824	-0.580476	0.19983	-0.196974	-0.456767	0.238236	-0.689443	0.0122269	-0.125213	0.25245	-0.0999431	-0.253186	0.177397	-0.659568	0.0746842	-0.124747	0.0493877	0.0106052	-0.0231745	2.53383	-0.243356	0.809399	1.01124	1.68443	2.6952	-0.350825	1.18295	1.19602	1.5669
2.43	-0.0934717	-0.0163736	0.163282	-0.0530601	1.09157	-0.580676	0.204522	-0.19517	-0.438562	0.263221	-0.666962	0.000627396	-0.125205	0.263802	-0.101964	-0.222483	0.215343	-0.639157	0.0548248	-0.124745	0.0424364	0.0131166	-0.02804	2.53323	-0.246337	0.808162	1.01834	1.6851	2.69543	-0.354776	1.18947	1.20473	1.56136
2.44	-0.0883705	-0.0186667	0.170294	-0.0534057	1.07375	-0.58087	0.21208	-0.193733	-0.417623	0.296584	-0.626567	-0.015078	-0.125196	0.27865	-0.103553	-0.18861	0.26319	-0.594794	0.033211	-0.124743	0.0371675	0.015617	-0.0333322	2.5329	-0.2486	0.806506	1.0245	1.68588	2.69632	-0.358251	1.1966	1.21183	1.55528
2.45	-0.0844359	-0.0208993	0.17692	-0.0537352	1.05481	-0.581023	0.223105	-0.192839	-0.393853	0.339199	-0.564907	-0.0349855	-0.125188	0.297389	-0.104433	-0.153549	0.320859	-0.524626	0.0104727	-0.124742	0.0336991	0.0178775	-0.0389774	2.53268	-0.249981	0.804199	1.02977	1.68733	2.69775	-0.361552	1.20399	1.218	1.54893
2.46	-0.0819429	-0.0228127	0.182932	-0.0541879	1.03517	-0.5811	0.237939	-0.192582	-0.367217	0.390993	-0.481035	-0.0587652	-0.12518	0.320057	-0.104377	-0.119365	0.3872	-0.430204	-0.0128453	-0.12474	0.0320161	0.0196551	-0.0448123	2.53235	-0.250475	0.80116	1.03444	1.68958	2.69936	-0.364917	1.21113	1.224	1.54238
2.47	-0.0809538	-0.0241432	0.188079	-0.0548285	1.01543	-0.581115	0.256625	-0.192976	-0.337924	0.450712	-0.377202	-0.085745	-0.125171	0.346286	-0.103231	-0.0879662	0.459956	-0.316567	-0.0362092	-0.124738	0.0320588	0.0206717	-0.0505676	2.53168	-0.25023	0.797504	1.039	1.69234	2.70066	-0.368507	1.21743	1.23063	1.53552
2.48	-0.0813892	-0.0246714	0.192092	-0.0556023	0.996012	-0.58109	0.278838	-0.193941	-0.306536	0.516011	-0.258741	-0.115043	-0.125163	0.375262	-0.100952	-0.0609211	0.536039	-0.191274	-0.0590272	-0.124737	0.0336389	0.0206851	-0.0558748	2.5304	-0.249538	0.793566	1.04408	1.69513	2.70101	-0.37239	1.22225	1.23863	1.5281
2.49	-0.0829003	-0.0241823	0.194701	-0.0563033	0.977036	-0.581023	0.303903	-0.195288	-0.273936	0.583845	-0.132957	-0.145692	-0.125155	0.405835	-0.0976631	-0.0393479	0.612034	-0.0628119	-0.0806398	-0.124735	0.0364935	0.0195884	-0.0602867	2.52837	-0.248794	0.789884	1.0503	1.69737	2.69974	-0.376527	1.22498	1.24859	1.51989
2.5	-0.0851203	-0.0225817	0.195636	-0.0569921	0.958768	-0.580905	0.330812	-0.196722	-0.24112	0.651041	-0.00754502	-0.176759	-0.125146	0.436624	-0.0936419	-0.023861	0.684778	0.0609113	-0.100421	-0.124734	0.0402077	0.0174111	-0.0633219	2.52551	-0.248429	0.787128	1.05821	1.69856	2.69624	-0.380779	1.2251	1.26086	1.51069
2.51	-0.0875642	-0.0198733	0.194662	-0.0577241	0.941534	-0.580727	0.358402	-0.197889	-0.208966	0.714817	0.110757	-0.207455	-0.125138	0.466257	-0.0892419	-0.014594	0.751791	0.173528	-0.117929	-0.124732	0.0442486	0.0143057	-0.0645269	2.52187	-0.248837	0.785982	1.06818	1.69828	2.69	-0.38495	1.22219	1.27554	1.5004
